<svg width="1600" height="183" viewBox="0 0 1600 183" fill="none" xmlns="http://www.w3.org/2000/svg">
<path d="M833.857 152.928C833.857 152.928 842.174 122.709 841.41 120.392L850.741 87.9919H853.646L845.392 126.5C842.487 142.017 853.201 152.864 856.756 156.868C860.31 160.873 883.916 171.123 906.074 166.443C940.671 159.136 968.432 132.892 966.132 93.4957V93.2061C957.184 21.9464 916.792 25.4225 916.792 25.4225C887.913 24.8431 855.174 46.8583 853.646 87.9919H850.741C850.741 73.3391 859.539 45.8084 850.741 30.291C854.828 -0.704042 885.095 -4.41383 913.984 3.69702C945.174 12.3872 967.104 52.0725 970.941 93.2061C972.728 110.297 971.244 125.65 968.944 138.106C968.944 138.106 968.944 138.395 968.683 138.684V138.395C959.233 189.378 824.945 206.908 845.392 141.916L841.41 163.876L847.94 178.957H828.525L833.857 152.928Z" fill="black"/>
<path d="M1581.65 111.506C1588.87 91.5409 1608.71 33.3817 1595.48 3H1558.79C1619.54 87.49 1560.3 127.999 1553.98 181.529H1598.49C1578.34 173.138 1565.41 149.701 1581.65 111.506Z" fill="black"/>
<path d="M677.036 4H639.448C639.448 4 644.259 8.05089 649.371 14.9952C649.07 14.9952 649.07 14.9952 649.07 14.9952C631.63 57.2402 583.817 149.832 573.894 179.056C562.768 148.675 545.026 52.9 532.998 12.1018C532.397 9.2083 531.495 6.60415 530.291 4H493.606C554.348 88.7793 495.109 128.999 488.794 182.529H533.299C513.151 174.137 500.221 150.7 516.459 112.506C522.172 96.3024 536.305 55.2148 534.501 23.9651C544.725 71.129 561.264 145.492 572.691 182.529H574.495C587.125 146.649 635.839 56.6615 650.874 17.5994C652.077 19.3355 653.281 21.6503 654.483 23.9651C659.294 36.1177 659.294 52.6107 650.574 74.0225C643.958 93.9876 625.014 152.147 637.342 182.529H672.525C614.789 98.0385 671.022 57.5296 677.036 4Z" fill="black"/>
<path d="M1084.63 182.529H1122.22C1122.22 182.529 1117.4 178.478 1112.29 171.534C1112.59 171.534 1112.59 171.534 1112.59 171.534C1130.04 129.289 1177.85 36.697 1187.77 7.47299C1198.9 37.854 1216.65 133.629 1228.67 174.427C1229.27 177.321 1230.17 179.925 1231.37 182.529H1268.06C1207.32 97.7496 1266.56 57.53 1272.87 4H1228.36C1248.52 12.392 1261.45 35.829 1245.2 74.023C1239.5 90.2265 1225.36 131.314 1227.16 162.564C1216.94 115.4 1200.4 41.037 1188.98 4H1187.17C1174.54 39.88 1125.83 129.867 1110.8 168.93C1109.59 167.193 1108.38 164.879 1107.18 162.564C1102.37 150.411 1102.37 133.918 1111.09 112.506C1117.7 92.5413 1136.66 34.382 1124.32 4H1089.14C1146.88 88.4904 1090.64 128.999 1084.63 182.529Z" fill="black"/>
<path d="M275.96 115.111C274.757 112.796 273.555 110.481 272.352 108.456C266.037 96.3024 260.023 85.8859 256.715 80.0989C240.477 46.8237 229.351 25.1225 242.281 4H202.288C203.19 5.73611 204.392 7.76154 205.294 9.4977C216.42 30.3308 218.526 48.5598 215.217 64.7634C214.315 68.2356 213.413 71.7078 212.211 75.18C198.077 116.557 152.671 146.65 149.063 182.529H184.846C174.021 165.168 179.735 147.228 191.161 122.923H272.953C275.96 138.837 273.555 156.777 262.73 177.031C261.827 178.767 260.925 180.503 259.722 182.529H290.394C296.709 164.3 286.786 137.39 275.96 115.111ZM192.063 120.898C194.169 116.268 196.574 111.638 199.28 106.43C202.288 100.643 208.602 90.2261 214.917 78.0734C216.119 75.7586 217.323 73.7332 218.225 71.4184C222.134 63.8953 225.442 56.0829 228.449 47.9811C243.183 67.6569 261.827 87.622 269.946 111.349C270.849 114.532 271.751 117.715 272.653 120.898H192.063Z" fill="black"/>
<path d="M484.695 4H447.107C447.107 4 451.919 8.05089 457.031 14.9952C456.73 14.9952 456.73 14.9952 456.73 14.9952C439.289 57.2402 391.477 149.832 381.554 179.056C370.427 148.675 352.686 52.9 340.658 12.1018C340.057 9.2083 339.154 6.60415 337.951 4H301.265C362.007 88.7793 302.769 128.999 296.454 182.529H340.959C320.811 174.137 307.88 150.7 324.118 112.506C329.832 96.3024 343.965 55.2148 342.161 23.9651C352.385 71.129 368.924 145.492 380.351 182.529H382.155C394.785 146.649 443.499 56.6615 458.534 17.5994C459.737 19.3355 460.94 21.6503 462.142 23.9651C466.954 36.1177 466.954 52.6107 458.234 74.0225C451.618 93.9876 432.674 152.147 445.002 182.529H480.185C422.449 98.0385 478.682 57.5296 484.695 4Z" fill="black"/>
<path d="M126.321 112.795C133.538 92.8302 153.384 34.671 140.153 4.28935H103.468C128.727 39.5899 133.237 67.3675 129.328 91.3835H35.5078C43.3268 65.0527 52.0469 26.8586 42.1236 4H5.43786C66.1797 88.7793 6.94104 128.999 0.626221 182.529H45.131C24.9834 174.137 12.0527 150.7 28.2908 112.506C30.095 107.876 32.5014 101.221 34.9067 93.4089H129.027C123.013 125.816 102.264 152.147 98.656 182.818H143.161C123.013 174.427 110.082 150.99 126.321 112.795Z" fill="black"/>
<path d="M808.032 115.111C806.829 112.796 805.626 110.481 804.423 108.456C798.108 96.3024 792.095 85.8859 788.786 80.0989C772.548 46.8237 761.423 25.1225 774.352 4H734.359C735.261 5.73611 736.463 7.76154 737.366 9.4977C748.492 30.3308 750.597 48.5598 747.289 64.7634C746.387 68.2356 745.485 71.7078 744.282 75.18C730.149 116.557 684.743 146.65 681.134 182.529H716.918C706.093 165.168 711.806 147.228 723.233 122.923H805.024C808.032 138.837 805.626 156.777 794.801 177.031C793.899 178.767 792.997 180.503 791.794 182.529H822.466C828.781 164.3 818.857 137.39 808.032 115.111ZM724.135 120.898C726.24 116.268 728.645 111.638 731.352 106.43C734.359 100.643 740.674 90.2261 746.989 78.0734C748.191 75.7586 749.394 73.7332 750.296 71.4184C754.206 63.8953 757.513 56.0829 760.521 47.9811C775.254 67.6569 793.899 87.622 802.018 111.349C802.92 114.532 803.822 117.715 804.724 120.898H724.135Z" fill="black"/>
<path d="M1403.87 115.111C1402.66 112.796 1401.46 110.481 1400.26 108.456C1393.94 96.3024 1387.93 85.8859 1384.62 80.0989C1368.38 46.8237 1357.26 25.1225 1370.19 4H1330.2C1331.1 5.73611 1332.3 7.76154 1333.2 9.49765C1344.33 30.3308 1346.43 48.5598 1343.13 64.7634C1342.22 68.2356 1341.32 71.7078 1340.12 75.18C1325.99 116.557 1280.58 146.65 1276.97 182.529H1312.75C1301.93 165.168 1307.64 147.228 1319.07 122.923H1400.86C1403.86 138.837 1401.46 156.777 1390.64 177.031C1389.73 178.767 1388.83 180.503 1387.63 182.529H1418.3C1424.61 164.3 1414.69 137.39 1403.87 115.111ZM1319.98 120.898C1322.08 116.268 1324.48 111.638 1327.19 106.43C1330.2 100.643 1336.51 90.2261 1342.83 78.0734C1344.03 75.7586 1345.23 73.7332 1346.13 71.4184C1350.04 63.8953 1353.35 56.0829 1356.35 47.9811C1371.09 67.6569 1389.73 87.622 1397.85 111.349C1398.75 114.532 1399.66 117.715 1400.56 120.898H1319.98Z" fill="black"/>
<path d="M1542.45 75.0521C1553.88 37.4367 1534.63 0.110637 1488.33 0.110637C1488.33 0.110637 1460.06 -3.07222 1443.52 24.7053C1401.12 96.7533 1549.36 86.3367 1531.32 133.79C1513.28 180.954 1421.27 152.308 1430.88 108.327C1431.19 106.302 1429.39 106.881 1429.39 108.327C1411.04 202.655 1532.23 203.234 1540.95 134.658C1545.46 86.6261 1423.67 88.6515 1444.73 46.1172C1466.68 2.42542 1549.07 28.1775 1540.95 75.0521H1542.45Z" fill="black"/>
<path d="M828.525 183H860.843L853.959 174.478V172.071L851.018 169.365C849.984 167.624 847.916 162.982 847.916 162.982C843.779 150.798 843.779 134.261 851.276 112.793C856.965 92.7749 873.252 34.4622 862.652 4H832.404C882.043 88.7133 833.696 129.329 828.525 183Z" fill="black"/>
</svg>
