<svg width="1787" height="183" viewBox="0 0 1787 183" fill="none" xmlns="http://www.w3.org/2000/svg">
<g clip-path="url(#clip0_7_42)">
<mask id="mask0_7_42" style="mask-type:luminance" maskUnits="userSpaceOnUse" x="0" y="0" width="1787" height="183">
<path d="M1787 0H0V183H1787V0Z" fill="white"/>
</mask>
<g mask="url(#mask0_7_42)">
<path d="M877.1 152.928C877.1 152.928 885.057 122.709 884.326 120.392L893.252 87.9919H896.031L888.135 126.5C885.356 142.017 895.606 152.864 899.006 156.868C902.406 160.873 924.989 171.123 946.186 166.443C979.283 159.136 1005.84 132.892 1003.64 93.4957V93.2061C995.08 21.9464 956.439 25.4225 956.439 25.4225C928.812 24.8431 897.493 46.8583 896.031 87.9919H893.252C893.252 73.3391 901.669 45.8084 893.252 30.291C897.162 -0.704046 926.117 -4.41383 953.753 3.69702C983.59 12.3872 1004.57 52.0725 1008.24 93.2061C1009.95 110.297 1008.53 125.65 1006.33 138.106C1006.33 138.106 1006.33 138.395 1006.08 138.684V138.395C997.04 189.378 868.575 206.908 888.135 141.916L884.326 163.876L890.573 178.957H872L877.1 152.928Z" fill="black"/>
<path d="M1592.47 111.506C1599.37 91.5409 1618.35 33.3817 1605.7 3H1570.6C1628.71 87.49 1572.04 127.999 1566 181.529H1608.58C1589.3 173.138 1576.93 149.701 1592.47 111.506Z" fill="black"/>
<path d="M727.079 4H691.121C691.121 4 695.724 8.05089 700.614 14.9952C700.326 14.9952 700.326 14.9952 700.326 14.9952C683.642 57.2402 637.903 149.832 628.41 179.056C617.766 148.675 600.794 52.9 589.287 12.1018C588.712 9.2083 587.849 6.60415 586.698 4H551.603C609.711 88.7793 553.041 128.999 547 182.529H589.575C570.301 174.137 557.931 150.7 573.465 112.506C578.931 96.3024 592.451 55.2148 590.725 23.9651C600.506 71.129 616.328 145.492 627.259 182.529H628.985C641.067 146.649 687.669 56.6615 702.052 17.5994C703.203 19.3355 704.354 21.6503 705.504 23.9651C710.107 36.1177 710.107 52.6107 701.765 74.0225C695.436 93.9876 677.313 152.147 689.107 182.529H722.764C667.532 98.0385 721.326 57.5296 727.079 4Z" fill="black"/>
<path d="M1117 182.529H1152.96C1152.96 182.529 1148.35 178.478 1143.46 171.534C1143.75 171.534 1143.75 171.534 1143.75 171.534C1160.44 129.289 1206.18 36.697 1215.67 7.47299C1226.31 37.854 1243.29 133.629 1254.79 174.427C1255.37 177.321 1256.23 179.925 1257.38 182.529H1292.48C1234.37 97.7496 1291.04 57.53 1297.08 4H1254.5C1273.78 12.392 1286.15 35.829 1270.61 74.023C1265.15 90.2265 1251.63 131.314 1253.35 162.564C1243.57 115.4 1227.75 41.037 1216.82 4H1215.09C1203.01 39.88 1156.41 129.867 1142.03 168.93C1140.88 167.193 1139.72 164.879 1138.57 162.564C1133.97 150.411 1133.97 133.918 1142.31 112.506C1148.64 92.5413 1166.77 34.382 1154.97 4H1121.31C1176.55 88.4904 1122.75 128.999 1117 182.529Z" fill="black"/>
<path d="M343.395 115.111C342.244 112.796 341.094 110.481 339.943 108.456C333.902 96.3024 328.149 85.8859 324.984 80.0989C309.45 46.8237 298.807 25.1225 311.176 4H272.917C273.78 5.73611 274.93 7.76154 275.793 9.4977C286.437 30.3308 288.451 48.5598 285.286 64.7634C284.423 68.2356 283.56 71.7078 282.41 75.18C268.889 116.557 225.452 146.65 222 182.529H256.232C245.876 165.168 251.342 147.228 262.273 122.923H340.518C343.395 138.837 341.094 156.777 330.738 177.031C329.875 178.767 329.012 180.503 327.861 182.529H357.203C363.244 164.3 353.751 137.39 343.395 115.111ZM263.136 120.898C265.15 116.268 267.451 111.638 270.04 106.43C272.917 100.643 278.958 90.2261 284.999 78.0734C286.149 75.7586 287.3 73.7332 288.163 71.4184C291.903 63.8953 295.067 56.0829 297.944 47.9811C312.039 67.6569 329.875 87.622 337.642 111.349C338.505 114.532 339.368 117.715 340.231 120.898H263.136Z" fill="black"/>
<path d="M543.079 4H507.121C507.121 4 511.724 8.05089 516.614 14.9952C516.326 14.9952 516.326 14.9952 516.326 14.9952C499.642 57.2402 453.903 149.832 444.41 179.056C433.766 148.675 416.794 52.9 405.287 12.1018C404.712 9.2083 403.849 6.60415 402.698 4H367.603C425.711 88.7793 369.041 128.999 363 182.529H405.575C386.301 174.137 373.931 150.7 389.465 112.506C394.931 96.3024 408.451 55.2148 406.725 23.9651C416.506 71.129 432.328 145.492 443.259 182.529H444.985C457.067 146.649 503.669 56.6615 518.052 17.5994C519.203 19.3355 520.354 21.6503 521.504 23.9651C526.107 36.1177 526.107 52.6107 517.765 74.0225C511.436 93.9876 493.313 152.147 505.107 182.529H538.764C483.532 98.0385 537.326 57.5296 543.079 4Z" fill="black"/>
<path d="M200.244 112.795C207.148 92.8302 226.134 34.671 213.477 4.28935H178.382C202.546 39.5899 206.861 67.3675 203.121 91.3835H113.369C120.849 65.0527 129.191 26.8586 119.698 4H84.603C142.711 88.7793 86.041 128.999 80 182.529H122.575C103.301 174.137 90.931 150.7 106.465 112.506C108.191 107.876 110.493 101.221 112.794 93.4089H202.833C197.08 125.816 177.231 152.147 173.779 182.818H216.354C197.08 174.427 184.71 150.99 200.244 112.795Z" fill="black"/>
<path d="M852.395 115.111C851.244 112.796 850.094 110.481 848.943 108.456C842.902 96.3024 837.149 85.8859 833.984 80.0989C818.45 46.8237 807.807 25.1225 820.176 4H781.917C782.78 5.73611 783.93 7.76154 784.793 9.4977C795.437 30.3308 797.451 48.5598 794.286 64.7634C793.423 68.2356 792.56 71.7078 791.41 75.18C777.889 116.557 734.452 146.65 731 182.529H765.232C754.876 165.168 760.342 147.228 771.273 122.923H849.518C852.395 138.837 850.094 156.777 839.738 177.031C838.875 178.767 838.012 180.503 836.861 182.529H866.203C872.244 164.3 862.751 137.39 852.395 115.111ZM772.136 120.898C774.15 116.268 776.451 111.638 779.04 106.43C781.917 100.643 787.958 90.2261 793.999 78.0734C795.149 75.7586 796.3 73.7332 797.163 71.4184C800.903 63.8953 804.067 56.0829 806.944 47.9811C821.039 67.6569 838.875 87.622 846.642 111.349C847.505 114.532 848.368 117.715 849.231 120.898H772.136Z" fill="black"/>
<path d="M1422.4 115.111C1421.24 112.796 1420.09 110.481 1418.94 108.456C1412.9 96.3024 1407.15 85.8859 1403.98 80.0989C1388.45 46.8237 1377.81 25.1225 1390.18 4H1351.92C1352.78 5.73611 1353.93 7.76154 1354.79 9.49765C1365.44 30.3308 1367.45 48.5598 1364.29 64.7634C1363.42 68.2356 1362.56 71.7078 1361.41 75.18C1347.89 116.557 1304.45 146.65 1301 182.529H1335.23C1324.88 165.168 1330.34 147.228 1341.27 122.923H1419.52C1422.39 138.837 1420.09 156.777 1409.74 177.031C1408.87 178.767 1408.01 180.503 1406.86 182.529H1436.2C1442.24 164.3 1432.75 137.39 1422.4 115.111ZM1342.14 120.898C1344.15 116.268 1346.45 111.638 1349.04 106.43C1351.92 100.643 1357.96 90.2261 1364 78.0734C1365.15 75.7586 1366.3 73.7332 1367.16 71.4184C1370.9 63.8953 1374.07 56.0829 1376.94 47.9811C1391.04 67.6569 1408.87 87.622 1416.64 111.349C1417.5 114.532 1418.37 117.715 1419.23 120.898H1342.14Z" fill="black"/>
<path d="M1554.97 75.0521C1565.9 37.4367 1547.49 0.110637 1503.19 0.110637C1503.19 0.110637 1476.15 -3.07222 1460.33 24.7053C1419.77 96.7533 1561.58 86.3367 1544.32 133.79C1527.06 180.954 1439.04 152.308 1448.24 108.327C1448.53 106.302 1446.81 106.881 1446.81 108.327C1429.26 202.655 1545.19 203.234 1553.53 134.658C1557.85 86.6261 1441.34 88.6515 1461.48 46.1172C1482.48 2.42542 1561.3 28.1775 1553.53 75.0521H1554.97Z" fill="black"/>
<path d="M872 183H902.916L896.331 174.478V172.071L893.517 169.365C892.528 167.624 890.55 162.982 890.55 162.982C886.592 150.798 886.592 134.261 893.764 112.793C899.206 92.7749 914.787 34.4622 904.647 4H875.71C923.197 88.7133 876.946 129.329 872 183Z" fill="black"/>
</g>
</g>
<defs>
<clipPath id="clip0_7_42">
<rect width="1787" height="183" fill="white"/>
</clipPath>
</defs>
</svg>
