<svg width="492" height="301" viewBox="0 0 492 301" fill="none" xmlns="http://www.w3.org/2000/svg">
<g filter="url(#filter0_d_1_23)">
<path d="M58.2414 0.5H433.759C448.642 0.5 462.097 4.90577 471.818 12.0042C481.54 19.1029 487.5 28.8678 487.5 39.6062V254.394C487.5 265.132 481.54 274.897 471.818 281.996C462.097 289.094 448.642 293.5 433.759 293.5H58.2414C43.3577 293.5 29.9032 289.094 20.1818 281.996C10.46 274.897 4.5 265.132 4.5 254.394V39.6062C4.5 28.8678 10.46 19.1029 20.1818 12.0042C29.9032 4.90577 43.3577 0.5 58.2414 0.5Z" fill="black" stroke="#D9D9D9"/>
<path d="M234 246H279.926C279.926 246 274.047 241.507 267.802 233.806C268.169 233.806 264.22 228 264.22 228C285.529 181.148 351 51.8518 360.022 51.8518C367.5 91 395.293 191.767 409.99 237.014C409.99 237.014 411.827 243.112 413.297 246H458.121C383.904 151.975 456.284 107.368 464 48H409.622C434.24 57.3073 450.039 83.3004 430.198 125.66C423.217 143.631 407.786 186.842 409.99 221.5C397.498 169.192 375.453 89.0764 361.492 48H359.287C343.856 87.7932 288.87 193.65 270.5 236.974C269.03 235.047 263.025 226.425 261.556 223.858C255.677 210.379 255.677 192.087 266.331 168.34C274.415 146.198 297.562 81.6956 282.498 48H239.511C310.054 141.705 241.348 186.632 234 246Z" fill="#D9D9D9"/>
<path d="M194.867 168.466C204.792 146.359 232.087 81.9611 213.891 48.32H163.437C198.176 87.4078 203.965 108.908 198.589 135.5L76.5 138.5C87.2535 109.344 92.7185 73.3111 79.0711 48H28.6174C112.155 141.873 30.6847 186.408 22 245.68H83.2071C55.4982 236.388 37.7147 210.437 60.0469 168.146C62.5282 163.019 65.8377 155.65 69.1457 147H198.589C190.318 182.883 161.782 212.039 156.82 246H218.027C190.318 236.709 172.534 210.758 194.867 168.466Z" fill="#D9D9D9"/>
</g>
<defs>
<filter id="filter0_d_1_23" x="0.954315" y="0" width="490.091" height="300.091" filterUnits="userSpaceOnUse" color-interpolation-filters="sRGB">
<feFlood flood-opacity="0" result="BackgroundImageFix"/>
<feColorMatrix in="SourceAlpha" type="matrix" values="0 0 0 0 0 0 0 0 0 0 0 0 0 0 0 0 0 0 127 0" result="hardAlpha"/>
<feOffset dy="3.04569"/>
<feGaussianBlur stdDeviation="1.52284"/>
<feComposite in2="hardAlpha" operator="out"/>
<feColorMatrix type="matrix" values="0 0 0 0 0 0 0 0 0 0 0 0 0 0 0 0 0 0 0.25 0"/>
<feBlend mode="normal" in2="BackgroundImageFix" result="effect1_dropShadow_1_23"/>
<feBlend mode="normal" in="SourceGraphic" in2="effect1_dropShadow_1_23" result="shape"/>
</filter>
</defs>
</svg>
