<svg width="313" height="255" viewBox="0 0 313 255" fill="none" xmlns="http://www.w3.org/2000/svg">
<g filter="url(#filter0_d_1_3)">
<path d="M37.9361 1H275.064C284.462 1 292.959 4.71408 299.097 10.6981C305.236 16.6823 309 24.9142 309 33.9667V215.034C309 224.086 305.236 232.318 299.097 238.302C292.959 244.286 284.462 248 275.064 248H37.9361C28.5375 248 20.0414 244.286 13.9026 238.302C7.76356 232.318 4 224.086 4 215.034V33.9667C4 24.9142 7.76356 16.6823 13.9026 10.6981C20.0414 4.71408 28.5375 1 37.9361 1Z" fill="black" stroke="#D9D9D9"/>
<path d="M150 195H175.958C175.958 195 172.635 191.778 169.105 186.255C169.313 186.255 167.081 182.091 167.081 182.091C179.125 148.49 216.13 55.7624 221.23 55.7624C225.457 83.8384 241.166 156.106 249.473 188.556C249.473 188.556 250.511 192.929 251.342 195H276.677C234.728 127.568 275.639 95.5771 280 53H249.265C263.179 59.6749 272.109 78.3165 260.895 108.696C256.949 121.584 248.227 152.574 249.473 177.429C242.412 139.915 229.952 82.4588 222.061 53H220.814C212.093 81.5386 181.013 157.456 170.63 188.527C169.8 187.145 166.405 180.961 165.575 179.12C162.252 169.454 162.252 156.335 168.274 139.304C172.843 123.425 185.926 77.1655 177.412 53H153.115C192.987 120.203 154.153 152.423 150 195Z" fill="#D9D9D9"/>
<path d="M135.753 139.945C141.535 124.039 157.436 77.7023 146.836 53.4965H117.443C137.681 81.6214 141.053 97.0915 137.921 116.225L66.7962 118.384C73.0608 97.4052 76.2446 71.4784 68.294 53.2662H38.9013C87.5676 120.811 40.1057 152.855 35.0463 195.504H70.7035C54.5612 188.818 44.2011 170.145 57.2112 139.715C58.6567 136.026 60.5847 130.724 62.5118 124.5H137.921C133.103 150.319 116.479 171.298 113.588 195.734H149.245C133.103 189.049 122.742 170.376 135.753 139.945Z" fill="#D9D9D9"/>
</g>
<defs>
<filter id="filter0_d_1_3" x="0.45432" y="0.5" width="312.091" height="254.091" filterUnits="userSpaceOnUse" color-interpolation-filters="sRGB">
<feFlood flood-opacity="0" result="BackgroundImageFix"/>
<feColorMatrix in="SourceAlpha" type="matrix" values="0 0 0 0 0 0 0 0 0 0 0 0 0 0 0 0 0 0 127 0" result="hardAlpha"/>
<feOffset dy="3.04569"/>
<feGaussianBlur stdDeviation="1.52284"/>
<feComposite in2="hardAlpha" operator="out"/>
<feColorMatrix type="matrix" values="0 0 0 0 0 0 0 0 0 0 0 0 0 0 0 0 0 0 0.25 0"/>
<feBlend mode="normal" in2="BackgroundImageFix" result="effect1_dropShadow_1_3"/>
<feBlend mode="normal" in="SourceGraphic" in2="effect1_dropShadow_1_3" result="shape"/>
</filter>
</defs>
</svg>
