<svg width="472" height="300" viewBox="0 0 472 394" fill="none" xmlns="http://www.w3.org/2000/svg">
<g filter="url(#filter0_d_6_40)">
<rect x="4" width="464" height="386" rx="52" fill="black"/>
<path d="M221 282.529H256.958C256.958 282.529 252.355 278.478 247.465 271.534C247.753 271.534 247.753 271.534 247.753 271.534C264.437 229.289 310.176 136.697 319.669 107.473C330.313 137.854 347.285 233.629 358.792 274.427C359.367 277.321 360.23 279.925 361.381 282.529H396.476C338.368 197.75 395.038 157.53 401.079 104H358.504C377.778 112.392 390.148 135.829 374.614 174.023C369.148 190.227 355.628 231.314 357.354 262.564C347.573 215.4 331.751 141.037 320.82 104H319.094C307.012 139.88 260.41 229.867 246.027 268.93C244.876 267.193 243.725 264.879 242.575 262.564C237.972 250.411 237.972 233.918 246.314 212.506C252.643 192.541 270.766 134.382 258.972 104H225.315C280.547 188.49 226.753 228.999 221 282.529Z" fill="#D9D9D9"/>
<path d="M194.244 212.795C201.148 192.83 220.134 134.671 207.477 104.289H172.382C196.546 139.59 200.861 167.368 197.121 191.384H107.369C114.849 165.053 123.191 126.859 113.698 104H78.603C136.711 188.779 80.041 228.999 74 282.529H116.575C97.301 274.137 84.931 250.7 100.465 212.506C102.191 207.876 104.493 201.221 106.794 193.409H196.833C191.08 225.816 171.231 252.147 167.779 282.818H210.354C191.08 274.427 178.71 250.99 194.244 212.795Z" fill="#D9D9D9"/>
</g>
<defs>
<filter id="filter0_d_6_40" x="0" y="0" width="472" height="394" filterUnits="userSpaceOnUse" color-interpolation-filters="sRGB">
<feFlood flood-opacity="0" result="BackgroundImageFix"/>
<feColorMatrix in="SourceAlpha" type="matrix" values="0 0 0 0 0 0 0 0 0 0 0 0 0 0 0 0 0 0 127 0" result="hardAlpha"/>
<feOffset dy="4"/>
<feGaussianBlur stdDeviation="2"/>
<feComposite in2="hardAlpha" operator="out"/>
<feColorMatrix type="matrix" values="0 0 0 0 0 0 0 0 0 0 0 0 0 0 0 0 0 0 0.25 0"/>
<feBlend mode="normal" in2="BackgroundImageFix" result="effect1_dropShadow_6_40"/>
<feBlend mode="normal" in="SourceGraphic" in2="effect1_dropShadow_6_40" result="shape"/>
</filter>
</defs>
</svg>
